<mxfile host="app.diagrams.net" modified="2024-01-22T09:18:09.271Z" agent="Mozilla/5.0 (Windows NT 10.0; Win64; x64) AppleWebKit/537.36 (KHTML, like Gecko) Chrome/120.0.0.0 Safari/537.36" etag="gQXVMNMVAkLy9LeRWsul" version="22.1.21" type="github">
  <diagram name="第 1 页" id="xuQ8l54krWLs2Sx5iRQF">
    <mxGraphModel dx="1434" dy="738" grid="1" gridSize="10" guides="1" tooltips="1" connect="1" arrows="1" fold="1" page="1" pageScale="1" pageWidth="1169" pageHeight="827" math="0" shadow="0">
      <root>
        <mxCell id="0" />
        <mxCell id="1" parent="0" />
        <mxCell id="Zb1GKSkhsLk-omKHb7x3-1" style="edgeStyle=orthogonalEdgeStyle;rounded=0;orthogonalLoop=1;jettySize=auto;html=1;exitX=1;exitY=0.5;exitDx=0;exitDy=0;entryX=0;entryY=0.5;entryDx=0;entryDy=0;fillColor=#ffe6cc;strokeColor=#d79b00;" parent="1" edge="1">
          <mxGeometry relative="1" as="geometry">
            <mxPoint x="168.5" y="70" as="sourcePoint" />
            <mxPoint x="208" y="70" as="targetPoint" />
          </mxGeometry>
        </mxCell>
        <mxCell id="Zb1GKSkhsLk-omKHb7x3-2" value="&lt;b style=&quot;font-size: 17px;&quot;&gt;&amp;nbsp;EPIC 850k&lt;br&gt;&lt;br&gt;Subset Female&lt;br&gt;&lt;/b&gt;" style="whiteSpace=wrap;html=1;rounded=0;shadow=0;comic=0;labelBackgroundColor=none;strokeWidth=1;fontFamily=Verdana;fontSize=12;align=center;fillColor=#e1d5e7;strokeColor=#9673a6;" parent="1" vertex="1">
          <mxGeometry x="18.5" y="10" width="150" height="110" as="geometry" />
        </mxCell>
        <mxCell id="Zb1GKSkhsLk-omKHb7x3-3" value="&lt;font style=&quot;font-size: 17px;&quot;&gt;Data importation &lt;br&gt;and filtering&lt;/font&gt;" style="swimlane;html=1;fontStyle=0;childLayout=stackLayout;horizontal=1;startSize=60;fillColor=#ffe6cc;horizontalStack=0;resizeParent=1;resizeLast=0;collapsible=1;marginBottom=0;swimlaneFillColor=#ffffff;align=center;rounded=1;shadow=0;comic=0;labelBackgroundColor=none;strokeWidth=1;fontFamily=Verdana;fontSize=12;strokeColor=#d79b00;" parent="1" vertex="1">
          <mxGeometry x="208" y="10" width="200" height="110" as="geometry">
            <mxRectangle x="210" y="40" width="220" height="30" as="alternateBounds" />
          </mxGeometry>
        </mxCell>
        <mxCell id="Zb1GKSkhsLk-omKHb7x3-4" value="&lt;font style=&quot;&quot;&gt;&lt;span style=&quot;font-size: 17px;&quot;&gt;champ.load()&lt;br&gt;&lt;/span&gt;&lt;span style=&quot;font-size: 13px; font-family: Verdana; text-align: left; background-color: initial;&quot;&gt;Female: 740682&lt;/span&gt;&lt;span style=&quot;font-size: 17px;&quot;&gt;&lt;br&gt;&lt;/span&gt;&lt;/font&gt;" style="text;html=1;spacingLeft=4;spacingRight=4;whiteSpace=wrap;overflow=hidden;rotatable=0;points=[[0,0.5],[1,0.5]];portConstraint=eastwest;align=center;rounded=1;" parent="Zb1GKSkhsLk-omKHb7x3-3" vertex="1">
          <mxGeometry y="60" width="200" height="40" as="geometry" />
        </mxCell>
        <mxCell id="Zb1GKSkhsLk-omKHb7x3-5" value="&lt;font style=&quot;font-size: 17px;&quot;&gt;BMIQ &lt;br&gt;Normalization&lt;/font&gt;" style="swimlane;html=1;fontStyle=0;childLayout=stackLayout;horizontal=1;startSize=60;fillColor=#ffe6cc;horizontalStack=0;resizeParent=1;resizeLast=0;collapsible=1;marginBottom=0;swimlaneFillColor=#ffffff;align=center;rounded=1;shadow=0;comic=0;labelBackgroundColor=none;strokeWidth=1;fontFamily=Verdana;fontSize=12;strokeColor=#d79b00;" parent="1" vertex="1">
          <mxGeometry x="448" y="10" width="140" height="110" as="geometry" />
        </mxCell>
        <mxCell id="Zb1GKSkhsLk-omKHb7x3-6" value="&lt;font style=&quot;font-size: 17px;&quot;&gt;champ.norm()&lt;/font&gt;" style="text;html=1;spacingLeft=4;spacingRight=4;whiteSpace=wrap;overflow=hidden;rotatable=0;points=[[0,0.5],[1,0.5]];portConstraint=eastwest;align=center;rounded=1;" parent="Zb1GKSkhsLk-omKHb7x3-5" vertex="1">
          <mxGeometry y="60" width="140" height="40" as="geometry" />
        </mxCell>
        <mxCell id="Zb1GKSkhsLk-omKHb7x3-7" value="&lt;font style=&quot;font-size: 17px;&quot;&gt;Mapping&lt;/font&gt;" style="swimlane;html=1;fontStyle=0;childLayout=stackLayout;horizontal=1;startSize=30;fillColor=#ffe6cc;horizontalStack=0;resizeParent=1;resizeLast=0;collapsible=1;marginBottom=0;swimlaneFillColor=#ffffff;align=center;rounded=1;shadow=0;comic=0;labelBackgroundColor=none;strokeWidth=1;fontFamily=Verdana;fontSize=12;strokeColor=#d79b00;" parent="1" vertex="1">
          <mxGeometry x="630" y="39" width="140" height="60" as="geometry" />
        </mxCell>
        <mxCell id="Zb1GKSkhsLk-omKHb7x3-8" value="&lt;font style=&quot;font-size: 17px;&quot;&gt;intersect()&lt;/font&gt;" style="text;html=1;spacingLeft=4;spacingRight=4;whiteSpace=wrap;overflow=hidden;rotatable=0;points=[[0,0.5],[1,0.5]];portConstraint=eastwest;align=center;rounded=1;" parent="Zb1GKSkhsLk-omKHb7x3-7" vertex="1">
          <mxGeometry y="30" width="140" height="30" as="geometry" />
        </mxCell>
        <mxCell id="Zb1GKSkhsLk-omKHb7x3-9" value="&lt;font style=&quot;font-size: 17px;&quot;&gt;LINE1&lt;/font&gt;" style="swimlane;html=1;fontStyle=0;childLayout=stackLayout;horizontal=1;startSize=30;fillColor=#dae8fc;horizontalStack=0;resizeParent=1;resizeLast=0;collapsible=1;marginBottom=0;swimlaneFillColor=#ffffff;align=center;rounded=1;shadow=0;comic=0;labelBackgroundColor=none;strokeWidth=1;fontFamily=Verdana;fontSize=12;strokeColor=#6c8ebf;" parent="1" vertex="1">
          <mxGeometry x="70.75" y="279" width="140" height="60" as="geometry" />
        </mxCell>
        <mxCell id="Zb1GKSkhsLk-omKHb7x3-10" value="&lt;font style=&quot;font-size: 17px;&quot;&gt;intersect()&lt;/font&gt;" style="text;html=1;strokeColor=none;fillColor=none;spacingLeft=4;spacingRight=4;whiteSpace=wrap;overflow=hidden;rotatable=0;points=[[0,0.5],[1,0.5]];portConstraint=eastwest;align=center;" parent="Zb1GKSkhsLk-omKHb7x3-9" vertex="1">
          <mxGeometry y="30" width="140" height="30" as="geometry" />
        </mxCell>
        <mxCell id="Zb1GKSkhsLk-omKHb7x3-11" style="edgeStyle=none;html=1;labelBackgroundColor=none;startFill=0;startSize=8;endFill=1;endSize=8;fontFamily=Verdana;fontSize=12;" parent="1" source="Zb1GKSkhsLk-omKHb7x3-13" target="Zb1GKSkhsLk-omKHb7x3-15" edge="1">
          <mxGeometry relative="1" as="geometry" />
        </mxCell>
        <mxCell id="Zb1GKSkhsLk-omKHb7x3-12" style="edgeStyle=none;html=1;labelBackgroundColor=none;startFill=0;startSize=8;endFill=1;endSize=8;fontFamily=Verdana;fontSize=12;" parent="1" source="Zb1GKSkhsLk-omKHb7x3-13" target="Zb1GKSkhsLk-omKHb7x3-9" edge="1">
          <mxGeometry relative="1" as="geometry" />
        </mxCell>
        <mxCell id="Zb1GKSkhsLk-omKHb7x3-13" value="&lt;font style=&quot;font-size: 17px;&quot;&gt;DMP&lt;/font&gt;" style="swimlane;html=1;fontStyle=0;childLayout=stackLayout;horizontal=1;startSize=30;fillColor=#ffe6cc;horizontalStack=0;resizeParent=1;resizeLast=0;collapsible=1;marginBottom=0;swimlaneFillColor=#ffffff;align=center;rounded=1;shadow=0;comic=0;labelBackgroundColor=none;strokeWidth=1;fontFamily=Verdana;fontSize=12;strokeColor=#d79b00;" parent="1" vertex="1">
          <mxGeometry x="214" y="179" width="140" height="60" as="geometry" />
        </mxCell>
        <mxCell id="Zb1GKSkhsLk-omKHb7x3-14" value="&lt;font style=&quot;font-size: 17px;&quot;&gt;champ.DMP()&lt;/font&gt;" style="text;html=1;spacingLeft=4;spacingRight=4;whiteSpace=wrap;overflow=hidden;rotatable=0;points=[[0,0.5],[1,0.5]];portConstraint=eastwest;align=center;rounded=1;" parent="Zb1GKSkhsLk-omKHb7x3-13" vertex="1">
          <mxGeometry y="30" width="140" height="30" as="geometry" />
        </mxCell>
        <mxCell id="Zb1GKSkhsLk-omKHb7x3-15" value="&lt;font style=&quot;font-size: 17px;&quot;&gt;Alu&lt;/font&gt;" style="swimlane;html=1;fontStyle=0;childLayout=stackLayout;horizontal=1;startSize=30;fillColor=#d5e8d4;horizontalStack=0;resizeParent=1;resizeLast=0;collapsible=1;marginBottom=0;swimlaneFillColor=#ffffff;align=center;rounded=1;shadow=0;comic=0;labelBackgroundColor=none;strokeWidth=1;fontFamily=Verdana;fontSize=12;strokeColor=#82b366;" parent="1" vertex="1">
          <mxGeometry x="358" y="279" width="142" height="60" as="geometry" />
        </mxCell>
        <mxCell id="Zb1GKSkhsLk-omKHb7x3-16" value="&lt;font style=&quot;font-size: 17px;&quot;&gt;intersect()&lt;/font&gt;" style="text;html=1;strokeColor=none;fillColor=none;spacingLeft=4;spacingRight=4;whiteSpace=wrap;overflow=hidden;rotatable=0;points=[[0,0.5],[1,0.5]];portConstraint=eastwest;align=center;" parent="Zb1GKSkhsLk-omKHb7x3-15" vertex="1">
          <mxGeometry y="30" width="142" height="30" as="geometry" />
        </mxCell>
        <mxCell id="Zb1GKSkhsLk-omKHb7x3-17" style="edgeStyle=none;html=1;labelBackgroundColor=none;startFill=0;startSize=8;endFill=1;endSize=8;fontFamily=Verdana;fontSize=12;entryX=0.007;entryY=-0.012;entryDx=0;entryDy=0;entryPerimeter=0;fillColor=#ffe6cc;strokeColor=#d79b00;exitX=1;exitY=0.542;exitDx=0;exitDy=0;exitPerimeter=0;" parent="1" source="Zb1GKSkhsLk-omKHb7x3-3" target="Zb1GKSkhsLk-omKHb7x3-6" edge="1">
          <mxGeometry relative="1" as="geometry">
            <mxPoint x="413" y="60" as="sourcePoint" />
            <mxPoint x="442" y="59.5" as="targetPoint" />
          </mxGeometry>
        </mxCell>
        <mxCell id="Zb1GKSkhsLk-omKHb7x3-18" value="&lt;font style=&quot;font-size: 17px;&quot;&gt;LINE1&lt;/font&gt;" style="swimlane;html=1;fontStyle=0;childLayout=stackLayout;horizontal=1;startSize=30;fillColor=#dae8fc;horizontalStack=0;resizeParent=1;resizeLast=0;collapsible=1;marginBottom=0;swimlaneFillColor=#ffffff;align=center;rounded=1;shadow=0;comic=0;labelBackgroundColor=none;strokeWidth=1;fontFamily=Verdana;fontSize=12;strokeColor=#6c8ebf;" parent="1" vertex="1">
          <mxGeometry x="669.25" y="279" width="142" height="60" as="geometry" />
        </mxCell>
        <mxCell id="Zb1GKSkhsLk-omKHb7x3-19" value="&lt;font style=&quot;font-size: 17px;&quot;&gt;intersect()&lt;/font&gt;" style="text;html=1;strokeColor=none;fillColor=none;spacingLeft=4;spacingRight=4;whiteSpace=wrap;overflow=hidden;rotatable=0;points=[[0,0.5],[1,0.5]];portConstraint=eastwest;align=center;" parent="Zb1GKSkhsLk-omKHb7x3-18" vertex="1">
          <mxGeometry y="30" width="142" height="30" as="geometry" />
        </mxCell>
        <mxCell id="Zb1GKSkhsLk-omKHb7x3-20" style="edgeStyle=none;html=1;labelBackgroundColor=none;startFill=0;startSize=8;endFill=1;endSize=8;fontFamily=Verdana;fontSize=12;" parent="1" source="Zb1GKSkhsLk-omKHb7x3-22" target="Zb1GKSkhsLk-omKHb7x3-24" edge="1">
          <mxGeometry relative="1" as="geometry" />
        </mxCell>
        <mxCell id="Zb1GKSkhsLk-omKHb7x3-21" style="edgeStyle=none;html=1;labelBackgroundColor=none;startFill=0;startSize=8;endFill=1;endSize=8;fontFamily=Verdana;fontSize=12;" parent="1" source="Zb1GKSkhsLk-omKHb7x3-22" target="Zb1GKSkhsLk-omKHb7x3-18" edge="1">
          <mxGeometry relative="1" as="geometry" />
        </mxCell>
        <mxCell id="Zb1GKSkhsLk-omKHb7x3-22" value="&lt;font style=&quot;font-size: 17px;&quot;&gt;DMR&lt;/font&gt;" style="swimlane;html=1;fontStyle=0;childLayout=stackLayout;horizontal=1;startSize=30;fillColor=#ffe6cc;horizontalStack=0;resizeParent=1;resizeLast=0;collapsible=1;marginBottom=0;swimlaneFillColor=#ffffff;align=center;rounded=1;shadow=0;comic=0;labelBackgroundColor=none;strokeWidth=1;fontFamily=Verdana;fontSize=12;strokeColor=#d79b00;" parent="1" vertex="1">
          <mxGeometry x="819.5" y="179" width="140" height="60" as="geometry" />
        </mxCell>
        <mxCell id="Zb1GKSkhsLk-omKHb7x3-23" value="&lt;font style=&quot;font-size: 17px;&quot;&gt;champ.DMR()&lt;/font&gt;" style="text;html=1;spacingLeft=4;spacingRight=4;whiteSpace=wrap;overflow=hidden;rotatable=0;points=[[0,0.5],[1,0.5]];portConstraint=eastwest;align=center;rounded=1;" parent="Zb1GKSkhsLk-omKHb7x3-22" vertex="1">
          <mxGeometry y="30" width="140" height="30" as="geometry" />
        </mxCell>
        <mxCell id="Zb1GKSkhsLk-omKHb7x3-24" value="&lt;font style=&quot;font-size: 17px;&quot;&gt;Alu&lt;/font&gt;" style="swimlane;html=1;fontStyle=0;childLayout=stackLayout;horizontal=1;startSize=30;fillColor=#d5e8d4;horizontalStack=0;resizeParent=1;resizeLast=0;collapsible=1;marginBottom=0;swimlaneFillColor=#ffffff;align=center;rounded=1;shadow=0;comic=0;labelBackgroundColor=none;strokeWidth=1;fontFamily=Verdana;fontSize=12;strokeColor=#82b366;" parent="1" vertex="1">
          <mxGeometry x="955.5" y="279" width="142" height="60" as="geometry" />
        </mxCell>
        <mxCell id="Zb1GKSkhsLk-omKHb7x3-25" value="&lt;font style=&quot;font-size: 17px;&quot;&gt;intersect()&lt;/font&gt;" style="text;html=1;strokeColor=none;fillColor=none;spacingLeft=4;spacingRight=4;whiteSpace=wrap;overflow=hidden;rotatable=0;points=[[0,0.5],[1,0.5]];portConstraint=eastwest;align=center;" parent="Zb1GKSkhsLk-omKHb7x3-24" vertex="1">
          <mxGeometry y="30" width="142" height="30" as="geometry" />
        </mxCell>
        <mxCell id="Zb1GKSkhsLk-omKHb7x3-26" value="&lt;font style=&quot;font-size: 17px;&quot;&gt;Adjusted p-value &amp;lt;0.05: &lt;br&gt;&amp;nbsp; &amp;nbsp; &amp;nbsp; &amp;nbsp; &amp;nbsp; &amp;nbsp; &amp;nbsp; &amp;nbsp; &amp;nbsp; &amp;nbsp; &amp;nbsp; &amp;nbsp; &amp;nbsp; &amp;nbsp; &amp;nbsp; n = 14144 CpGs &lt;br&gt;P-value &amp;lt;0.05 &amp;amp; Δβ&amp;gt; 0.1:&lt;br&gt;&amp;nbsp; &amp;nbsp; &amp;nbsp; &amp;nbsp; &amp;nbsp; &amp;nbsp; &amp;nbsp; &amp;nbsp; &amp;nbsp; &amp;nbsp; &amp;nbsp; &amp;nbsp; &amp;nbsp; &amp;nbsp; &amp;nbsp; n = 6066 CpGs&lt;br&gt;P-value &amp;lt;0.05 &amp;amp; Δβ&amp;lt;-0.1:&lt;br&gt;&amp;nbsp; &amp;nbsp; &amp;nbsp; &amp;nbsp; &amp;nbsp; &amp;nbsp; &amp;nbsp; &amp;nbsp; &amp;nbsp; &amp;nbsp; &amp;nbsp; &amp;nbsp; &amp;nbsp; &amp;nbsp; &amp;nbsp; n = 1239 CpGs&lt;br&gt;P-value &amp;lt;0.01 &amp;amp; Δβ&amp;gt; 0.2:&lt;br&gt;&amp;nbsp; &amp;nbsp; &amp;nbsp; &amp;nbsp; &amp;nbsp; &amp;nbsp; &amp;nbsp; &amp;nbsp; &amp;nbsp; &amp;nbsp; &amp;nbsp; &amp;nbsp; &amp;nbsp; &amp;nbsp; &amp;nbsp; n = 626 CpGs&lt;br style=&quot;border-color: var(--border-color);&quot;&gt;P-value &amp;lt;0.01 &amp;amp; Δβ&amp;lt;-0.2:&lt;br&gt;&amp;nbsp; &amp;nbsp; &amp;nbsp; &amp;nbsp; &amp;nbsp; &amp;nbsp; &amp;nbsp; &amp;nbsp; &amp;nbsp; &amp;nbsp; &amp;nbsp; &amp;nbsp; &amp;nbsp; &amp;nbsp; &amp;nbsp; n = 78 CpGs&lt;br&gt;&lt;/font&gt;" style="text;html=1;spacingLeft=4;spacingRight=4;whiteSpace=wrap;overflow=hidden;rotatable=0;points=[[0,0.5],[1,0.5]];portConstraint=eastwest;align=left;rounded=1;fillColor=#dae8fc;strokeColor=#6c8ebf;" parent="1" vertex="1">
          <mxGeometry x="1.5" y="389" width="278.5" height="211" as="geometry" />
        </mxCell>
        <mxCell id="Zb1GKSkhsLk-omKHb7x3-29" value="&lt;div style=&quot;font-size: 17px;&quot;&gt;&lt;font style=&quot;font-size: 17px;&quot;&gt;Adjusted p-value &amp;lt;0.05:&lt;/font&gt;&lt;/div&gt;&lt;div style=&quot;font-size: 17px;&quot;&gt;&lt;font style=&quot;font-size: 17px;&quot;&gt;&amp;nbsp; &amp;nbsp; &amp;nbsp; &amp;nbsp; &amp;nbsp; &amp;nbsp; &amp;nbsp; &amp;nbsp; &amp;nbsp; &amp;nbsp; &amp;nbsp; &amp;nbsp; &amp;nbsp; &amp;nbsp; &amp;nbsp; n = 17695 CpGs&lt;/font&gt;&lt;/div&gt;&lt;div style=&quot;font-size: 17px;&quot;&gt;&lt;font style=&quot;font-size: 17px;&quot;&gt;P-value &amp;lt;0.05 &amp;amp; Δβ&amp;gt; 0.1:&lt;/font&gt;&lt;/div&gt;&lt;div style=&quot;font-size: 17px;&quot;&gt;&lt;font style=&quot;font-size: 17px;&quot;&gt;&amp;nbsp; &amp;nbsp; &amp;nbsp; &amp;nbsp; &amp;nbsp; &amp;nbsp; &amp;nbsp; &amp;nbsp; &amp;nbsp; &amp;nbsp; &amp;nbsp; &amp;nbsp; &amp;nbsp; &amp;nbsp; &amp;nbsp; n = 4829 CpGs&lt;/font&gt;&lt;/div&gt;&lt;div style=&quot;font-size: 17px;&quot;&gt;&lt;font style=&quot;font-size: 17px;&quot;&gt;P-value &amp;lt;0.05 &amp;amp; Δβ&amp;lt;-0.1:&lt;/font&gt;&lt;/div&gt;&lt;div style=&quot;font-size: 17px;&quot;&gt;&lt;font style=&quot;font-size: 17px;&quot;&gt;&amp;nbsp; &amp;nbsp; &amp;nbsp; &amp;nbsp; &amp;nbsp; &amp;nbsp; &amp;nbsp; &amp;nbsp; &amp;nbsp; &amp;nbsp; &amp;nbsp; &amp;nbsp; &amp;nbsp; &amp;nbsp; &amp;nbsp; n = 1427 CpGs&lt;/font&gt;&lt;/div&gt;&lt;div style=&quot;font-size: 17px;&quot;&gt;&lt;font style=&quot;font-size: 17px;&quot;&gt;P-value &amp;lt;0.01 &amp;amp; Δβ&amp;gt; 0.2:&lt;/font&gt;&lt;/div&gt;&lt;div style=&quot;font-size: 17px;&quot;&gt;&lt;font style=&quot;font-size: 17px;&quot;&gt;&amp;nbsp; &amp;nbsp; &amp;nbsp; &amp;nbsp; &amp;nbsp; &amp;nbsp; &amp;nbsp; &amp;nbsp; &amp;nbsp; &amp;nbsp; &amp;nbsp; &amp;nbsp; &amp;nbsp; &amp;nbsp; &amp;nbsp; n = 423 CpGs&lt;/font&gt;&lt;/div&gt;&lt;div style=&quot;font-size: 17px;&quot;&gt;&lt;font style=&quot;font-size: 17px;&quot;&gt;P-value &amp;lt;0.01 &amp;amp; Δβ&amp;lt;-0.2:&lt;/font&gt;&lt;/div&gt;&lt;div style=&quot;font-size: 17px;&quot;&gt;&lt;font style=&quot;font-size: 17px;&quot;&gt;&amp;nbsp; &amp;nbsp; &amp;nbsp; &amp;nbsp; &amp;nbsp; &amp;nbsp; &amp;nbsp; &amp;nbsp; &amp;nbsp; &amp;nbsp; &amp;nbsp; &amp;nbsp; &amp;nbsp; &amp;nbsp; &amp;nbsp; n = 52 CpGs&lt;/font&gt;&lt;/div&gt;" style="text;html=1;spacingLeft=4;spacingRight=4;whiteSpace=wrap;overflow=hidden;rotatable=0;points=[[0,0.5],[1,0.5]];portConstraint=eastwest;align=left;rounded=1;fillColor=#d5e8d4;strokeColor=#82b366;" parent="1" vertex="1">
          <mxGeometry x="289" y="389" width="280" height="211" as="geometry" />
        </mxCell>
        <mxCell id="Zb1GKSkhsLk-omKHb7x3-32" value="&lt;h3&gt;&lt;font face=&quot;Verdana&quot;&gt;LINE1: 49780&lt;/font&gt;&amp;nbsp;&lt;font face=&quot;Verdana&quot;&gt;&lt;span style=&quot;background-color: initial;&quot;&gt;&lt;br&gt;&lt;/span&gt;&lt;/font&gt;&lt;font face=&quot;Verdana&quot;&gt;&lt;span style=&quot;background-color: initial;&quot;&gt;Alu: 50297&lt;/span&gt;&lt;/font&gt;&lt;/h3&gt;" style="text;html=1;spacingLeft=4;spacingRight=4;whiteSpace=wrap;overflow=hidden;rotatable=0;points=[[0,0.5],[1,0.5]];portConstraint=eastwest;align=left;rounded=1;fillColor=default;strokeColor=#d6b656;fillStyle=cross-hatch;" parent="1" vertex="1">
          <mxGeometry x="792" y="35" width="127" height="70" as="geometry" />
        </mxCell>
        <mxCell id="Zb1GKSkhsLk-omKHb7x3-35" style="edgeStyle=none;html=1;labelBackgroundColor=none;startFill=0;startSize=8;endFill=1;endSize=8;fontFamily=Verdana;fontSize=12;entryX=0.011;entryY=0.003;entryDx=0;entryDy=0;fillColor=#ffe6cc;strokeColor=#d79b00;entryPerimeter=0;" parent="1" edge="1">
          <mxGeometry relative="1" as="geometry">
            <mxPoint x="629.7600000000002" y="70.09000000000003" as="targetPoint" />
            <mxPoint x="588" y="70" as="sourcePoint" />
          </mxGeometry>
        </mxCell>
        <mxCell id="Zb1GKSkhsLk-omKHb7x3-36" value="" style="html=1;shadow=0;dashed=0;align=center;verticalAlign=middle;shape=mxgraph.arrows2.arrow;dy=0.69;dx=15.5;direction=south;notch=0;fillColor=#ffe6cc;strokeColor=#d79b00;fillStyle=cross-hatch;rotation=-90;" parent="1" vertex="1">
          <mxGeometry x="762.19" y="58.07" width="38.13" height="22.5" as="geometry" />
        </mxCell>
        <mxCell id="Zb1GKSkhsLk-omKHb7x3-50" value="" style="strokeWidth=2;html=1;shape=mxgraph.flowchart.annotation_2;align=left;labelPosition=right;pointerEvents=1;rotation=90;" parent="1" vertex="1">
          <mxGeometry x="555" y="-131" width="60" height="560" as="geometry" />
        </mxCell>
        <mxCell id="Zb1GKSkhsLk-omKHb7x3-51" value="&lt;font style=&quot;font-size: 17px;&quot;&gt;&lt;br&gt;&lt;br&gt;DMP.Adjusted P-value &amp;lt; 0.01:&lt;br style=&quot;border-color: var(--border-color);&quot;&gt;&amp;nbsp; &amp;nbsp; &amp;nbsp; &amp;nbsp; &amp;nbsp; &amp;nbsp; &amp;nbsp; &amp;nbsp; &amp;nbsp; &amp;nbsp; &amp;nbsp; &amp;nbsp; &amp;nbsp; &amp;nbsp; &amp;nbsp; &amp;nbsp; &amp;nbsp; &amp;nbsp; &amp;nbsp;n = 5 DMRs&lt;br style=&quot;border-color: var(--border-color);&quot;&gt;DMP.Adjusted P-value &amp;lt; 0.01 &amp;amp; p.value &amp;lt; 0.05&amp;nbsp;:&amp;nbsp; &amp;nbsp; &amp;nbsp; &amp;nbsp; &amp;nbsp; &amp;nbsp; &amp;nbsp; &amp;nbsp; &amp;nbsp; &amp;nbsp; &amp;nbsp; &amp;nbsp; &amp;nbsp; &amp;nbsp; &amp;nbsp; &amp;nbsp; &amp;nbsp; &amp;nbsp; &amp;nbsp; &amp;nbsp; &amp;nbsp; &amp;nbsp; &amp;nbsp; &amp;nbsp; &amp;nbsp; &amp;nbsp; &amp;nbsp; &amp;nbsp; &amp;nbsp; &amp;nbsp; &amp;nbsp; &amp;nbsp; &amp;nbsp; &amp;nbsp; &amp;nbsp;n = 2 DMRs&lt;br&gt;&lt;/font&gt;" style="text;html=1;spacingLeft=4;spacingRight=4;whiteSpace=wrap;overflow=hidden;rotatable=0;points=[[0,0.5],[1,0.5]];portConstraint=eastwest;align=left;rounded=1;fillColor=#dae8fc;strokeColor=#6c8ebf;" parent="1" vertex="1">
          <mxGeometry x="601" y="389" width="278.5" height="211" as="geometry" />
        </mxCell>
        <mxCell id="Zb1GKSkhsLk-omKHb7x3-52" value="&lt;div style=&quot;font-size: 17px;&quot;&gt;&lt;br&gt;&lt;/div&gt;&lt;div style=&quot;font-size: 17px;&quot;&gt;&lt;br&gt;&lt;/div&gt;&lt;div style=&quot;font-size: 17px;&quot;&gt;DMP.Adjusted P-value &amp;lt; 0.01:&lt;br style=&quot;border-color: var(--border-color);&quot;&gt;&amp;nbsp; &amp;nbsp; &amp;nbsp; &amp;nbsp; &amp;nbsp; &amp;nbsp; &amp;nbsp; &amp;nbsp; &amp;nbsp; &amp;nbsp; &amp;nbsp; &amp;nbsp; &amp;nbsp; &amp;nbsp; &amp;nbsp; &amp;nbsp; &amp;nbsp; &amp;nbsp; &amp;nbsp;n = 6 DMRs&lt;br style=&quot;border-color: var(--border-color);&quot;&gt;DMP.Adjusted P-value &amp;lt; 0.01 &amp;amp; p.value &amp;lt; 0.05&amp;nbsp;:&amp;nbsp; &amp;nbsp; &amp;nbsp; &amp;nbsp; &amp;nbsp; &amp;nbsp; &amp;nbsp; &amp;nbsp; &amp;nbsp; &amp;nbsp; &amp;nbsp; &amp;nbsp; &amp;nbsp; &amp;nbsp; &amp;nbsp; &amp;nbsp; &amp;nbsp; &amp;nbsp; &amp;nbsp; &amp;nbsp; &amp;nbsp; &amp;nbsp; &amp;nbsp; &amp;nbsp; &amp;nbsp; &amp;nbsp; &amp;nbsp; &amp;nbsp; &amp;nbsp; &amp;nbsp; &amp;nbsp; &amp;nbsp; &amp;nbsp; &amp;nbsp; &amp;nbsp;n = 0 DMRs&lt;br&gt;&lt;/div&gt;" style="text;html=1;spacingLeft=4;spacingRight=4;whiteSpace=wrap;overflow=hidden;rotatable=0;points=[[0,0.5],[1,0.5]];portConstraint=eastwest;align=left;rounded=1;fillColor=#d5e8d4;strokeColor=#82b366;" parent="1" vertex="1">
          <mxGeometry x="886.5" y="389" width="280" height="211" as="geometry" />
        </mxCell>
      </root>
    </mxGraphModel>
  </diagram>
</mxfile>
